<svg xmlns="http://www.w3.org/2000/svg" fill="none" viewBox="0 0 272 21">
  <g clip-path="url(#a)">
    <path fill="#111" d="M151.51 16.506c2.205 0 3.888-.278 3.888-.278v-1.73c-.485.029-2.268.144-3.534.144-3.006 0-4.457-.644-4.457-3.758s1.087-3.708 3.882-3.708c2.23 0 3.741.2 3.741.2l.174-1.828c-.89-.106-1.882-.259-3.791-.259-4.61 0-6.04 1.7-6.04 5.63 0 3.93 1.899 5.587 6.138 5.587M235.767 5.504h-2.04v11.002h2.04V5.504ZM254.153 5.501h-2.04v11.005h8.02v-1.819h-5.98V5.501ZM227.706 16.506V7.141c2.46.052 4.189.246 4.189.246l.089-1.594s-5.043-.862-10.588 0l.092 1.594a42.672 42.672 0 0 1 4.182-.251v9.37h2.036ZM190.9 16.506l5.148-11.005h-2.033l-4.021 8.718-4.075-8.718h-2.257l5.148 11.005h2.09ZM180.201 13.232l-7.187-7.73h-1.864v11.004h1.968V8.554l7.351 7.952h1.677V5.501h-1.945v7.731ZM162.893 5.288c-3.837 0-5.924 1.611-5.924 5.608s2.087 5.611 5.924 5.611 5.933-1.613 5.933-5.61c0-3.999-2.091-5.61-5.933-5.61Zm0 9.454c-2.528 0-3.874-1.103-3.874-3.846 0-2.742 1.346-3.845 3.874-3.845 2.529 0 3.879 1.104 3.879 3.845 0 2.742-1.345 3.846-3.879 3.846ZM207.759 11.762V8.456c0-2.285-2.767-3.168-5.245-3.168-3.563 0-5.477 1.178-5.477 3.527v4.164c0 2.767 2.319 3.526 5.816 3.526 2.206 0 4.535-.278 4.535-.278v-1.73c-.486.03-2.484.179-4.169.179-2.375 0-4.167-.275-4.167-1.697V11.76h8.707v.001Zm-8.707-3.05c0-1.218 1.251-1.762 3.462-1.762 2.374 0 3.349.812 3.349 1.55v1.57h-6.81V8.712h-.001ZM217.231 12.186c1.684 0 2.984-1.247 2.984-3.344 0-2.097-.706-3.396-3.429-3.396h-6.61v11.005h1.985v-4.11h2.921c1.241 2.385 3.079 4.301 6.114 4.157v-1.55c-1.939-.273-3.291-1.404-3.964-2.762m-.706-1.556h-4.364V7.133h4.343c1.386 0 1.714.44 1.714 1.802 0 1.363-.443 1.695-1.693 1.695ZM248.037 10.69c.707-.468.809-1.403.809-2.366 0-1.909-1.028-2.824-3.478-2.824h-6.36v11.006h6.796c2.751 0 3.838-.608 3.838-3.214 0-1.792-.542-2.377-1.607-2.603m-7.045-3.473h4.045c1.543 0 1.842.195 1.842 1.392 0 1.354-.213 1.478-1.859 1.478h-4.028V7.215Zm4.245 7.536h-4.245v-2.948h4.377c1.719 0 2.261.05 2.261 1.398 0 1.564-.675 1.55-2.393 1.55ZM271.999 11.762V8.456c0-2.285-2.769-3.168-5.245-3.168-3.565 0-5.481 1.178-5.481 3.527v4.164c0 2.767 2.321 3.526 5.821 3.526 2.205 0 4.539-.278 4.539-.278v-1.73c-.491.03-2.49.179-4.177.179-2.367 0-4.159-.275-4.159-1.697V11.76h8.704l-.002.001Zm-8.703-3.05c0-1.218 1.247-1.762 3.459-1.762 2.372 0 3.348.812 3.348 1.55v1.57h-6.807V8.712ZM67.19 8.302s1.579-.973 5.012-.973 5.057.973 5.057.973v8.204h2.183v-9.53s-2.493-1.742-7.217-1.742-7.221 1.741-7.221 1.741v9.532h2.184V8.301h.002ZM98.802 5.451h-2.046v11.055h2.046V5.451ZM105.909 14.674c-1.36 0-2.57-.171-4.003-.478l-.258 1.715c1.057.403 2.873.595 4.406.595 3.232 0 5.326-.937 5.326-3.37 0-2.78-2.014-2.896-4.703-3.189-2.182-.24-2.988-.409-2.988-1.582 0-1.02.883-1.36 2.801-1.36 2.083 0 3.163.142 4.02.27l.238-1.73c-1.466-.265-2.892-.328-4.491-.328-2.661 0-4.589.747-4.594 3.296-.006 2.395 1.676 2.971 4.248 3.225 2.486.246 3.452.269 3.452 1.4 0 1.476-1.406 1.536-3.454 1.536ZM136.509 13.227l-7.221-7.767h-1.872v11.046h1.976V8.528l7.386 7.978h1.685V5.46h-1.954v7.767ZM88.23 5.333c-2.27 0-5.584.636-5.584 4.09v7.084h2.028v-3.64h7.103v3.64h2.028V9.422c0-3.452-3.304-4.089-5.577-4.089m3.548 5.733h-7.103V9.689c0-2.54 2.276-2.602 3.555-2.602 1.28 0 3.548.063 3.548 2.602v1.377ZM119.192 5.246c-3.855 0-5.948 1.615-5.948 5.631 0 4.017 2.093 5.628 5.948 5.628 3.854 0 5.953-1.616 5.953-5.628 0-4.011-2.102-5.63-5.953-5.63Zm0 9.49c-2.539 0-3.892-1.107-3.892-3.859 0-2.751 1.352-3.86 3.892-3.86 2.539 0 3.893 1.108 3.893 3.86 0 2.753-1.352 3.859-3.893 3.859ZM44.375 14.527h-7.14V5.3H35.01v11.207h9.365v-1.979ZM52.544 5.333c-2.27 0-5.583.636-5.583 4.089v7.084h2.028v-3.639h7.102v3.64h2.028V9.421c0-3.452-3.303-4.09-5.576-4.09m3.547 5.733h-7.102V9.69c0-2.54 2.276-2.603 3.555-2.603 1.279 0 3.547.063 3.547 2.603v1.376Z"/>
    <path fill="#C5205B" d="M26.21 3.26S20.828 0 13.112 0C5.396 0 0 3.26 0 3.26v16.2h3.178V5.19s3.98-2.087 9.89-2.087c5.909 0 10.022 2.087 10.022 2.087V16.54c-1.87.503-4.617.93-7.334.93-6.035 0-7.314-.498-7.314-4.617 0-3.42 1.04-3.984 5.727-3.984 1.819 0 4.647.346 5.952.59l.452-2.564c-1.5-.454-4.29-.912-6.568-.912-7.238 0-8.76 2.037-8.76 6.869 0 5.375 1.75 7.363 10.26 7.363 4.511 0 8.357-.913 10.658-1.62l.048-.007V3.259h-.001Z"/>
  </g>
  <defs>
    <clipPath id="a">
      <path fill="#fff" d="M0 0h272v20.216H0z"/>
    </clipPath>
  </defs>
</svg>
